<svg xmlns="http://www.w3.org/2000/svg" xmlns:xlink="http://www.w3.org/1999/xlink" viewBox="0 0 239.65 271.25"><defs><style>.cls-1,.cls-6{fill:none;}.cls-2{fill:#2e81c0;}.cls-3{fill:#19538c;}.cls-4{fill:#fff;}.cls-5{clip-path:url(#clip-path);}.cls-6{stroke:#fff;stroke-miterlimit:10;stroke-width:6px;}</style><clipPath id="clip-path"><polygon class="cls-1" points="243.55 187.18 156.61 187.18 134.93 142.49 135.53 139.12 131.21 134.81 85.82 41.24 243.55 41.24 243.55 187.18"/></clipPath></defs><title>Asset 1</title><g id="Layer_2" data-name="Layer 2"><g id="Layer_1-2" data-name="Layer 1"><path class="cls-2" d="M0,193V77.57a19.88,19.88,0,0,1,9.93-17.2l100-57.71a19.85,19.85,0,0,1,19.86,0l100,57.71a19.87,19.87,0,0,1,9.92,17.2V193a19.87,19.87,0,0,1-9.92,17.2l-100,57.71a19.85,19.85,0,0,1-19.86,0L9.93,210.2A19.88,19.88,0,0,1,0,193Z"/><path class="cls-3" d="M239.64,185.79v6.05c0,8.62.28,12.43-11.07,19l-97,56c-8.35,4.82-12.65,7.11-25.19-1l-94.61-54.6C-.31,204.75,0,200,0,190.33v-4.54l119.82,65.54Z"/><path class="cls-4" d="M187,83.92h-6.8V77.48a2.85,2.85,0,0,0-2.51-2.83L138.25,70a46.61,46.61,0,0,0-25.7,4.28A46.59,46.59,0,0,0,86.86,70L47.43,74.65a2.85,2.85,0,0,0-2.52,2.83v6.44h-6.8a2.84,2.84,0,0,0-2.84,2.84v93.05a2.85,2.85,0,0,0,2.84,2.85H187a2.86,2.86,0,0,0,2.85-2.85v-93A2.85,2.85,0,0,0,187,83.92Zm-49.41-8.25L174.5,80v84.57l-36.25-4.26a46.61,46.61,0,0,0-22.86,3V79.25a41,41,0,0,1,22.19-3.58Zm-50.06,0a40.9,40.9,0,0,1,22.19,3.58v84.1a46.79,46.79,0,0,0-22.85-3L50.6,164.58V80ZM184.15,177H41V89.61h4v78.16a2.85,2.85,0,0,0,3.18,2.83L87.52,166a41,41,0,0,1,23.72,4.33,2.88,2.88,0,0,0,2.62,0A41,41,0,0,1,137.58,166L177,170.6l.33,0a2.8,2.8,0,0,0,1.89-.72,2.84,2.84,0,0,0,1-2.13V89.61h4Z"/><path class="cls-4" d="M121.94,91.69a41,41,0,0,1,15.59-1.16L167.13,94l.34,0a2.84,2.84,0,0,0,.33-5.67l-29.61-3.48a46.77,46.77,0,0,0-17.74,1.32,2.84,2.84,0,1,0,1.49,5.49Z"/><path class="cls-4" d="M57.53,94l.33,0,29.6-3.48a41.32,41.32,0,0,1,15.59,1.16,2.84,2.84,0,1,0,1.49-5.48A46.88,46.88,0,0,0,86.8,84.88L57.2,88.36A2.84,2.84,0,0,0,57.53,94Z"/><path class="cls-4" d="M121.94,104.73a41.2,41.2,0,0,1,15.59-1.16l29.6,3.48.34,0a2.84,2.84,0,0,0,.33-5.67l-29.61-3.47a46.76,46.76,0,0,0-17.74,1.31,2.84,2.84,0,1,0,1.49,5.49Z"/><path class="cls-4" d="M57.53,107.07l.33,0,29.6-3.48a41.33,41.33,0,0,1,15.59,1.17,2.84,2.84,0,0,0,1.49-5.49A46.88,46.88,0,0,0,86.8,97.93L57.2,101.4a2.84,2.84,0,0,0,.33,5.67Z"/><path class="cls-4" d="M121.94,117.78a40.8,40.8,0,0,1,15.59-1.16l29.6,3.47a2,2,0,0,0,.34,0,2.84,2.84,0,0,0,.33-5.66L138.19,111a46.57,46.57,0,0,0-17.74,1.32,2.84,2.84,0,1,0,1.49,5.49Z"/><path class="cls-4" d="M57.53,120.11a1.83,1.83,0,0,0,.33,0l29.6-3.47a41.32,41.32,0,0,1,15.59,1.16,2.84,2.84,0,0,0,1.49-5.49A46.88,46.88,0,0,0,86.8,111l-29.6,3.47a2.84,2.84,0,0,0,.33,5.67Z"/><path class="cls-4" d="M121.94,130.82a40.8,40.8,0,0,1,15.59-1.16l29.6,3.48h.34a2.84,2.84,0,0,0,.33-5.66L138.19,124a46.57,46.57,0,0,0-17.74,1.32,2.84,2.84,0,1,0,1.49,5.49Z"/><path class="cls-4" d="M57.53,133.15h.33l29.6-3.48a41.32,41.32,0,0,1,15.59,1.16,2.84,2.84,0,1,0,1.49-5.49A47.1,47.1,0,0,0,86.8,124l-29.6,3.48a2.84,2.84,0,0,0,.33,5.66Z"/><path class="cls-4" d="M167.8,140.53l-29.61-3.48a46.77,46.77,0,0,0-17.74,1.32,2.84,2.84,0,0,0,1.49,5.49,41.21,41.21,0,0,1,15.59-1.16l29.6,3.48.34,0a2.84,2.84,0,0,0,.33-5.67Z"/><path class="cls-4" d="M57.53,146.2l.33,0,29.6-3.48a41.32,41.32,0,0,1,15.59,1.16,2.84,2.84,0,1,0,1.49-5.48,46.68,46.68,0,0,0-17.74-1.32l-29.6,3.47a2.84,2.84,0,0,0,.33,5.67Z"/><polygon class="cls-2" points="220.16 196.09 149.23 196.09 82.41 58.33 220.16 58.33 220.16 196.09"/><g class="cls-5"><ellipse class="cls-6" cx="143.13" cy="117.27" rx="63.02" ry="62.76"/><path class="cls-4" d="M201.8,140.05c.25-.68.51-1.35.76-2l.39-1.15c.3-.92.58-1.86.85-2.79,0-.15.09-.3.13-.44v0a62,62,0,0,0,2.18-16.31,63,63,0,0,0-126,0,62,62,0,0,0,2.42,17.16v.07c0,.1.07.19.1.3.3,1,.62,2,1,3l.21.62c.4,1.11.82,2.19,1.27,3.26.24.56.51,1.12.76,1.66s.39.87.6,1.29c.38.78.78,1.54,1.19,2.31l.18.35a62.63,62.63,0,0,0,28,26.51l0,0c.75.36,1.52.7,2.3,1l1.08.45,1.93.76c.62.23,1.25.43,1.89.65.39.13.77.29,1.17.41h.06a63.16,63.16,0,0,0,38.49-.27h.06l.48-.17c.88-.3,1.76-.61,2.63-1l1.1-.44c.69-.28,1.37-.57,2-.88a62.48,62.48,0,0,0,31.78-32c.13-.3.27-.59.39-.88.21-.5.4-1,.61-1.51Zm-112,2.12c-.25-.53-.5-1.08-.73-1.62s-.52-1.22-.75-1.83c-.14-.32-.26-.64-.38-.95-.38-1-.74-2-1.07-3.1.35-.26.7-.5,1-.74l6.61,11.42a15.28,15.28,0,0,0-2,2q-1.25-2.07-2.33-4.25l-.44-.91Zm29.68-7.42-8.88,9.82a13.77,13.77,0,0,0-12.41-1.31L91.6,131.83a27,27,0,0,1,27.93,2.92Zm6.91,7.84A26.48,26.48,0,0,1,130,156h0a26.48,26.48,0,0,1-1.56,8.93l-12.11-5.37A13.6,13.6,0,0,0,115,149.16a13,13,0,0,0-1.26-1.79l8.87-9.81a26.89,26.89,0,0,1,3.8,5Zm-3.13,29.84-1.12-.42a58.12,58.12,0,0,1-10.61-5.31,13.53,13.53,0,0,0,3.08-3.34l12.1,5.36a24.59,24.59,0,0,1-2.65,4l-.8-.27ZM98.42,147.79a9.46,9.46,0,1,1,9.49,16.37l0,0-.55-.44c-.8-.61-1.59-1.24-2.36-1.89l-1.2-1c-.8-.72-1.58-1.46-2.34-2.21-.47-.46-.91-.94-1.35-1.41s-.83-.9-1.24-1.37q-1-1.14-1.95-2.34c-.41-.51-.81-1-1.2-1.55l-.62-.87a9.26,9.26,0,0,1,3.34-3.27Zm30,26.2a30.83,30.83,0,0,0,3.11-5.34.26.26,0,0,0,.05-.09.07.07,0,0,0,0-.05,30.71,30.71,0,0,0,2.6-10.44h2.63a2.1,2.1,0,0,0,0-4.19h-2.62a30.48,30.48,0,0,0-3.11-11.52l2.27-1.31a2.1,2.1,0,1,0-2.11-3.63l-2.28,1.32a30.31,30.31,0,0,0-5-5.72l0,0-.07,0a35.13,35.13,0,0,0-3.41-2.62L121.8,128a2.1,2.1,0,0,0-3.64-2.09l-1.32,2.26a31.52,31.52,0,0,0-11.57-3.09V122.5a2.1,2.1,0,0,0-4.2,0v2.63a30.93,30.93,0,0,0-13.44,4c-.63.36-1.25.77-1.87,1.19a58.81,58.81,0,1,1,114.85-.88,31.09,31.09,0,0,0-15.51-5.39v-2.63a2.11,2.11,0,0,0-4.21,0v2.61a31,31,0,0,0-11.57,3.07L168,124.89a2.1,2.1,0,0,0-3.64,2.09l1.32,2.28a30.72,30.72,0,0,0-8.46,8.43l-2.29-1.32a2.1,2.1,0,0,0-2.87.77,2.07,2.07,0,0,0,.77,2.85l2.26,1.31A31.08,31.08,0,0,0,152,152.83h-2.63a2.09,2.09,0,1,0,0,4.18H152a31.1,31.1,0,0,0,.57,4.26s0,.06,0,.08,0,.05,0,.07a31.19,31.19,0,0,0,3.46,9,30,30,0,0,0,2.35,3.41,59.15,59.15,0,0,1-30,.18Zm71-39.86c-.24.79-.49,1.55-.76,2.32l-.3.89c-.26.7-.54,1.39-.83,2.08-.42,1-.86,2.05-1.34,3.05l-.1.21c-.67,1.37-1.4,2.71-2.17,4a13.74,13.74,0,0,0-15.85-4.49l-6.61-11.4a26.79,26.79,0,0,1,28,3,2.81,2.81,0,0,1-.08.31Zm-28.63,34.8c-.69.36-1.38.72-2.08,1.06-.55.26-1.1.51-1.66.75-.35.17-.71.34-1.08.49-1,.42-2,.82-3.07,1.19l-.15.05a26.69,26.69,0,0,1-3-4.17,26.11,26.11,0,0,1-2.46-5.79l13-2.74a12.52,12.52,0,0,0,.93,2,13.4,13.4,0,0,0,4.25,4.45c-1.35.89-2.73,1.72-4.16,2.5l-.46.25Zm-3-36,6.63,11.43a13.62,13.62,0,0,0-5.08,11.36l-13,2.74a26.72,26.72,0,0,1,11.42-25.53ZM183,145.47a9.49,9.49,0,0,1,8.23,4.72c.07.13.15.26.22.4l-.68.94c-.39.54-.8,1.07-1.21,1.6-.62.79-1.24,1.56-1.9,2.31-.39.46-.79.91-1.19,1.36s-1,1.07-1.54,1.6c-.31.32-.64.63-1,.94-.89.86-1.82,1.69-2.76,2.5-.36.29-.71.6-1.07.88s-.67.55-1,.8A9.44,9.44,0,0,1,183,145.47Z"/><path class="cls-4" d="M161.34,120a18.63,18.63,0,0,0-3.5-16.61l15.94-15.86a40.2,40.2,0,0,1,5.12,7,40.93,40.93,0,0,1,5.51,20.76,2.1,2.1,0,0,0,2.09,2.1h0a2.11,2.11,0,0,0,2.11-2.08,45.31,45.31,0,0,0-1.07-9.88l4.78-1.28a2.1,2.1,0,1,0-1.09-4l-4.77,1.28a43.53,43.53,0,0,0-2.94-7.1l4.27-2.45a2.1,2.1,0,1,0-2.11-3.63l-4.28,2.48a45.2,45.2,0,0,0-4.67-6.11l3.48-3.48a2.06,2.06,0,0,0,0-3,2.1,2.1,0,0,0-3,0l-3.47,3.45A46.44,46.44,0,0,0,167.64,77l2.47-4.26a2.1,2.1,0,0,0-3.64-2.1L164,74.91A47.4,47.4,0,0,0,156.87,72l1.29-4.78a2.1,2.1,0,0,0-4.06-1.09l-1.28,4.79a45.72,45.72,0,0,0-7.63-1V65A2.11,2.11,0,0,0,141,65v4.93a45.11,45.11,0,0,0-7.64,1l-1.27-4.73A2.11,2.11,0,0,0,128,67.22L129.27,72a46.84,46.84,0,0,0-7.1,3l-2.47-4.28a2.11,2.11,0,0,0-3.65,2.1L118.52,77a43.83,43.83,0,0,0-6.12,4.68l-3.49-3.48a2.09,2.09,0,0,0-3,0,2.06,2.06,0,0,0,0,3l3.49,3.49a44.47,44.47,0,0,0-4.68,6.1l-4.29-2.48A2.11,2.11,0,0,0,97.6,89a2.08,2.08,0,0,0,.77,2.86l4.3,2.47a46.22,46.22,0,0,0-3,7.08l-4.79-1.28a2.1,2.1,0,1,0-1.09,4l4.79,1.28a45.73,45.73,0,0,0-1.07,9.88,2.09,2.09,0,0,0,2.09,2.08h0a2.08,2.08,0,0,0,2.09-2.09,41.26,41.26,0,0,1,10.67-27.76l15.9,15.83a18.87,18.87,0,1,0,33,16.62ZM133.62,98.87a21.17,21.17,0,0,0-2.32,1.6L115.38,84.62a40.24,40.24,0,0,1,7-5.12,41.54,41.54,0,0,1,48.4,5.12l-15.92,15.84a19,19,0,0,0-21.26-1.59Zm5.66,30.45a14.65,14.65,0,0,1,3.78-28.8,15.21,15.21,0,0,1,3.83.51,14.58,14.58,0,0,1,8.92,6.83,14.38,14.38,0,0,1,1.47,11.1,14.71,14.71,0,0,1-18,10.36Z"/></g></g></g></svg>